<svg width="336" height="340" viewBox="0 0 336 340" fill="none" xmlns="http://www.w3.org/2000/svg">
<path d="M336 170C336 263.888 260.784 340 168 340C75.2162 340 0 263.888 0 170C0 76.1116 75.2162 0 168 0C260.784 0 336 76.1116 336 170ZM19.281 170C19.281 253.113 85.8648 320.489 168 320.489C250.135 320.489 316.719 253.113 316.719 170C316.719 86.887 250.135 19.5105 168 19.5105C85.8648 19.5105 19.281 86.887 19.281 170Z" fill="#414141"/>
<path d="M152.934 174.836C152.934 181.914 151.469 187.328 148.539 191.078C145.609 194.828 141.32 196.703 135.672 196.703C130.094 196.703 125.828 194.863 122.875 191.184C119.922 187.504 118.41 182.23 118.34 175.363V165.941C118.34 158.793 119.816 153.367 122.77 149.664C125.746 145.961 130.023 144.109 135.602 144.109C141.18 144.109 145.445 145.949 148.398 149.629C151.352 153.285 152.863 158.547 152.934 165.414V174.836ZM142.773 164.5C142.773 160.258 142.188 157.176 141.016 155.254C139.867 153.309 138.062 152.336 135.602 152.336C133.211 152.336 131.441 153.262 130.293 155.113C129.168 156.941 128.57 159.812 128.5 163.727V176.172C128.5 180.344 129.062 183.449 130.188 185.488C131.336 187.504 133.164 188.512 135.672 188.512C138.156 188.512 139.949 187.539 141.051 185.594C142.152 183.648 142.727 180.672 142.773 176.664V164.5ZM159.684 154.656C159.684 151.516 160.703 148.973 162.742 147.027C164.781 145.059 167.453 144.074 170.758 144.074C174.109 144.074 176.805 145.047 178.844 146.992C180.883 148.914 181.902 151.527 181.902 154.832V157.363C181.902 160.527 180.883 163.07 178.844 164.992C176.805 166.914 174.133 167.875 170.828 167.875C167.5 167.875 164.805 166.914 162.742 164.992C160.703 163.047 159.684 160.434 159.684 157.152V154.656ZM166.434 157.363C166.434 158.77 166.832 159.906 167.629 160.773C168.449 161.617 169.516 162.039 170.828 162.039C172.141 162.039 173.184 161.605 173.957 160.738C174.73 159.871 175.117 158.711 175.117 157.258V154.656C175.117 153.25 174.73 152.113 173.957 151.246C173.184 150.379 172.117 149.945 170.758 149.945C169.469 149.945 168.426 150.379 167.629 151.246C166.832 152.09 166.434 153.273 166.434 154.797V157.363ZM184.152 183.449C184.152 180.285 185.184 177.742 187.246 175.82C189.309 173.875 191.98 172.902 195.262 172.902C198.59 172.902 201.273 173.863 203.312 175.785C205.375 177.684 206.406 180.309 206.406 183.66V186.191C206.406 189.332 205.398 191.875 203.383 193.82C201.367 195.742 198.684 196.703 195.332 196.703C191.957 196.703 189.25 195.73 187.211 193.785C185.172 191.84 184.152 189.262 184.152 186.051V183.449ZM190.902 186.191C190.902 187.48 191.324 188.582 192.168 189.496C193.012 190.41 194.066 190.867 195.332 190.867C198.191 190.867 199.621 189.285 199.621 186.121V183.449C199.621 182.043 199.223 180.918 198.426 180.074C197.629 179.207 196.574 178.773 195.262 178.773C193.949 178.773 192.895 179.207 192.098 180.074C191.301 180.918 190.902 182.078 190.902 183.555V186.191ZM172.832 192.168L167.875 189.496L192.871 149.488L197.828 152.16L172.832 192.168Z" fill="white"/>
</svg>
