<svg width="336" height="340" viewBox="0 0 336 340" fill="none" xmlns="http://www.w3.org/2000/svg">
<path d="M336 170C336 263.888 260.784 340 168 340C75.2162 340 0 263.888 0 170C0 76.1116 75.2162 0 168 0C260.784 0 336 76.1116 336 170ZM19.281 170C19.281 253.113 85.8648 320.489 168 320.489C250.135 320.489 316.719 253.113 316.719 170C316.719 86.887 250.135 19.5105 168 19.5105C85.8648 19.5105 19.281 86.887 19.281 170Z" fill="#414141"/>
<path d="M168 0C203.478 4.28109e-07 238.046 11.3653 266.748 32.4671C295.45 53.5689 316.814 83.3237 327.777 117.467C338.741 151.611 338.741 188.39 327.777 222.533C316.814 256.676 295.45 286.431 266.748 307.533L255.415 291.749C280.823 273.069 299.735 246.729 309.44 216.504C319.145 186.279 319.145 153.721 309.44 123.496C299.735 93.2714 280.823 66.9314 255.415 48.2515C230.007 29.5715 199.406 19.5105 168 19.5105V0Z" fill="#FF7C7C"/>
<path d="M138.539 176.734H144.34V184.926H138.539V196H128.379V184.926H107.391L106.934 178.527L128.273 144.812H138.539V176.734ZM117.059 176.734H128.379V158.664L127.711 159.824L117.059 176.734ZM184.277 174.836C184.277 181.914 182.812 187.328 179.883 191.078C176.953 194.828 172.664 196.703 167.016 196.703C161.438 196.703 157.172 194.863 154.219 191.184C151.266 187.504 149.754 182.23 149.684 175.363V165.941C149.684 158.793 151.16 153.367 154.113 149.664C157.09 145.961 161.367 144.109 166.945 144.109C172.523 144.109 176.789 145.949 179.742 149.629C182.695 153.285 184.207 158.547 184.277 165.414V174.836ZM174.117 164.5C174.117 160.258 173.531 157.176 172.359 155.254C171.211 153.309 169.406 152.336 166.945 152.336C164.555 152.336 162.785 153.262 161.637 155.113C160.512 156.941 159.914 159.812 159.844 163.727V176.172C159.844 180.344 160.406 183.449 161.531 185.488C162.68 187.504 164.508 188.512 167.016 188.512C169.5 188.512 171.293 187.539 172.395 185.594C173.496 183.648 174.07 180.672 174.117 176.664V164.5ZM191.027 154.656C191.027 151.516 192.047 148.973 194.086 147.027C196.125 145.059 198.797 144.074 202.102 144.074C205.453 144.074 208.148 145.047 210.188 146.992C212.227 148.914 213.246 151.527 213.246 154.832V157.363C213.246 160.527 212.227 163.07 210.188 164.992C208.148 166.914 205.477 167.875 202.172 167.875C198.844 167.875 196.148 166.914 194.086 164.992C192.047 163.047 191.027 160.434 191.027 157.152V154.656ZM197.777 157.363C197.777 158.77 198.176 159.906 198.973 160.773C199.793 161.617 200.859 162.039 202.172 162.039C203.484 162.039 204.527 161.605 205.301 160.738C206.074 159.871 206.461 158.711 206.461 157.258V154.656C206.461 153.25 206.074 152.113 205.301 151.246C204.527 150.379 203.461 149.945 202.102 149.945C200.812 149.945 199.77 150.379 198.973 151.246C198.176 152.09 197.777 153.273 197.777 154.797V157.363ZM215.496 183.449C215.496 180.285 216.527 177.742 218.59 175.82C220.652 173.875 223.324 172.902 226.605 172.902C229.934 172.902 232.617 173.863 234.656 175.785C236.719 177.684 237.75 180.309 237.75 183.66V186.191C237.75 189.332 236.742 191.875 234.727 193.82C232.711 195.742 230.027 196.703 226.676 196.703C223.301 196.703 220.594 195.73 218.555 193.785C216.516 191.84 215.496 189.262 215.496 186.051V183.449ZM222.246 186.191C222.246 187.48 222.668 188.582 223.512 189.496C224.355 190.41 225.41 190.867 226.676 190.867C229.535 190.867 230.965 189.285 230.965 186.121V183.449C230.965 182.043 230.566 180.918 229.77 180.074C228.973 179.207 227.918 178.773 226.605 178.773C225.293 178.773 224.238 179.207 223.441 180.074C222.645 180.918 222.246 182.078 222.246 183.555V186.191ZM204.176 192.168L199.219 189.496L224.215 149.488L229.172 152.16L204.176 192.168Z" fill="white"/>
</svg>
