<svg width="336" height="340" viewBox="0 0 336 340" fill="none" xmlns="http://www.w3.org/2000/svg">
<path d="M336 170C336 263.888 260.784 340 168 340C75.2162 340 0 263.888 0 170C0 76.1116 75.2162 0 168 0C260.784 0 336 76.1116 336 170ZM19.281 170C19.281 253.113 85.8648 320.489 168 320.489C250.135 320.489 316.719 253.113 316.719 170C316.719 86.887 250.135 19.5105 168 19.5105C85.8648 19.5105 19.281 86.887 19.281 170Z" fill="#414141"/>
<path d="M168 0C194.512 3.19918e-07 220.648 6.34934 244.27 18.5289C267.893 30.7084 288.331 48.3724 303.915 70.0765C319.498 91.7806 329.784 116.909 333.932 143.406C338.079 169.904 335.97 197.018 327.777 222.533C319.585 248.048 305.541 271.238 286.794 290.208C268.047 309.178 245.129 323.389 219.915 331.68C194.7 339.97 167.905 342.104 141.719 337.907C115.533 333.71 90.7009 323.302 69.2521 307.533L80.5852 291.749C99.5724 305.708 121.555 314.922 144.735 318.637C167.916 322.352 191.636 320.463 213.957 313.124C236.277 305.785 256.565 293.205 273.16 276.412C289.756 259.619 302.188 239.09 309.44 216.504C316.693 193.917 318.559 169.915 314.888 146.458C311.217 123.002 302.111 100.758 288.316 81.5445C274.521 62.3313 256.428 46.6946 235.517 35.9129C214.606 25.1312 191.469 19.5105 168 19.5105V0Z" fill="#FF7C7C"/>
<path d="M136.043 144.285V152.652H135.059C130.465 152.723 126.762 153.918 123.949 156.238C121.16 158.559 119.484 161.781 118.922 165.906C121.641 163.141 125.074 161.758 129.223 161.758C133.676 161.758 137.215 163.352 139.84 166.539C142.465 169.727 143.777 173.922 143.777 179.125C143.777 182.453 143.051 185.465 141.598 188.16C140.168 190.855 138.129 192.953 135.48 194.453C132.855 195.953 129.879 196.703 126.551 196.703C121.16 196.703 116.801 194.828 113.473 191.078C110.168 187.328 108.516 182.324 108.516 176.066V172.41C108.516 166.855 109.559 161.957 111.645 157.715C113.754 153.449 116.766 150.156 120.68 147.836C124.617 145.492 129.176 144.309 134.355 144.285H136.043ZM126.129 169.914C124.488 169.914 123 170.348 121.664 171.215C120.328 172.059 119.344 173.184 118.711 174.59V177.684C118.711 181.082 119.379 183.742 120.715 185.664C122.051 187.562 123.926 188.512 126.34 188.512C128.52 188.512 130.277 187.656 131.613 185.945C132.973 184.211 133.652 181.973 133.652 179.23C133.652 176.441 132.973 174.191 131.613 172.48C130.254 170.77 128.426 169.914 126.129 169.914ZM184.277 174.836C184.277 181.914 182.812 187.328 179.883 191.078C176.953 194.828 172.664 196.703 167.016 196.703C161.438 196.703 157.172 194.863 154.219 191.184C151.266 187.504 149.754 182.23 149.684 175.363V165.941C149.684 158.793 151.16 153.367 154.113 149.664C157.09 145.961 161.367 144.109 166.945 144.109C172.523 144.109 176.789 145.949 179.742 149.629C182.695 153.285 184.207 158.547 184.277 165.414V174.836ZM174.117 164.5C174.117 160.258 173.531 157.176 172.359 155.254C171.211 153.309 169.406 152.336 166.945 152.336C164.555 152.336 162.785 153.262 161.637 155.113C160.512 156.941 159.914 159.812 159.844 163.727V176.172C159.844 180.344 160.406 183.449 161.531 185.488C162.68 187.504 164.508 188.512 167.016 188.512C169.5 188.512 171.293 187.539 172.395 185.594C173.496 183.648 174.07 180.672 174.117 176.664V164.5ZM191.027 154.656C191.027 151.516 192.047 148.973 194.086 147.027C196.125 145.059 198.797 144.074 202.102 144.074C205.453 144.074 208.148 145.047 210.188 146.992C212.227 148.914 213.246 151.527 213.246 154.832V157.363C213.246 160.527 212.227 163.07 210.188 164.992C208.148 166.914 205.477 167.875 202.172 167.875C198.844 167.875 196.148 166.914 194.086 164.992C192.047 163.047 191.027 160.434 191.027 157.152V154.656ZM197.777 157.363C197.777 158.77 198.176 159.906 198.973 160.773C199.793 161.617 200.859 162.039 202.172 162.039C203.484 162.039 204.527 161.605 205.301 160.738C206.074 159.871 206.461 158.711 206.461 157.258V154.656C206.461 153.25 206.074 152.113 205.301 151.246C204.527 150.379 203.461 149.945 202.102 149.945C200.812 149.945 199.77 150.379 198.973 151.246C198.176 152.09 197.777 153.273 197.777 154.797V157.363ZM215.496 183.449C215.496 180.285 216.527 177.742 218.59 175.82C220.652 173.875 223.324 172.902 226.605 172.902C229.934 172.902 232.617 173.863 234.656 175.785C236.719 177.684 237.75 180.309 237.75 183.66V186.191C237.75 189.332 236.742 191.875 234.727 193.82C232.711 195.742 230.027 196.703 226.676 196.703C223.301 196.703 220.594 195.73 218.555 193.785C216.516 191.84 215.496 189.262 215.496 186.051V183.449ZM222.246 186.191C222.246 187.48 222.668 188.582 223.512 189.496C224.355 190.41 225.41 190.867 226.676 190.867C229.535 190.867 230.965 189.285 230.965 186.121V183.449C230.965 182.043 230.566 180.918 229.77 180.074C228.973 179.207 227.918 178.773 226.605 178.773C225.293 178.773 224.238 179.207 223.441 180.074C222.645 180.918 222.246 182.078 222.246 183.555V186.191ZM204.176 192.168L199.219 189.496L224.215 149.488L229.172 152.16L204.176 192.168Z" fill="white"/>
</svg>
