<svg width="336" height="340" viewBox="0 0 336 340" fill="none" xmlns="http://www.w3.org/2000/svg">
<path d="M336 170C336 263.888 260.784 340 168 340C75.2162 340 0 263.888 0 170C0 76.1116 75.2162 0 168 0C260.784 0 336 76.1116 336 170ZM19.281 170C19.281 253.113 85.8648 320.489 168 320.489C250.135 320.489 316.719 253.113 316.719 170C316.719 86.887 250.135 19.5105 168 19.5105C85.8648 19.5105 19.281 86.887 19.281 170Z" fill="#414141"/>
<path d="M168 0C203.478 4.28109e-07 238.046 11.3653 266.748 32.4671C295.45 53.5689 316.814 83.3237 327.777 117.467C338.741 151.611 338.741 188.39 327.777 222.533C316.814 256.676 295.45 286.431 266.748 307.533C238.046 328.635 203.478 340 168 340C132.522 340 97.9545 328.635 69.2521 307.533C40.5497 286.431 19.1858 256.676 8.2225 222.533C-2.74084 188.389 -2.74083 151.61 8.22251 117.467L26.5598 123.496C16.8547 153.721 16.8547 186.279 26.5598 216.504C36.2649 246.729 55.1769 273.069 80.5852 291.749C105.993 310.428 136.594 320.489 168 320.489C199.406 320.489 230.007 310.428 255.415 291.749C280.823 273.069 299.735 246.729 309.44 216.504C319.145 186.279 319.145 153.721 309.44 123.496C299.735 93.2714 280.823 66.9314 255.415 48.2515C230.007 29.5715 199.406 19.5105 168 19.5105V0Z" fill="#FF7C7C"/>
<path d="M141.844 158.418C141.844 160.902 141.223 163.105 139.98 165.027C138.738 166.949 137.027 168.484 134.848 169.633C137.332 170.828 139.301 172.48 140.754 174.59C142.207 176.676 142.934 179.137 142.934 181.973C142.934 186.52 141.387 190.117 138.293 192.766C135.199 195.391 130.992 196.703 125.672 196.703C120.352 196.703 116.133 195.379 113.016 192.73C109.898 190.082 108.34 186.496 108.34 181.973C108.34 179.137 109.066 176.664 110.52 174.555C111.973 172.445 113.93 170.805 116.391 169.633C114.211 168.484 112.5 166.949 111.258 165.027C110.039 163.105 109.43 160.902 109.43 158.418C109.43 154.059 110.883 150.59 113.789 148.012C116.695 145.41 120.645 144.109 125.637 144.109C130.605 144.109 134.543 145.398 137.449 147.977C140.379 150.531 141.844 154.012 141.844 158.418ZM132.738 181.234C132.738 179.008 132.094 177.227 130.805 175.891C129.516 174.555 127.781 173.887 125.602 173.887C123.445 173.887 121.723 174.555 120.434 175.891C119.145 177.203 118.5 178.984 118.5 181.234C118.5 183.414 119.133 185.172 120.398 186.508C121.664 187.844 123.422 188.512 125.672 188.512C127.875 188.512 129.598 187.867 130.84 186.578C132.105 185.289 132.738 183.508 132.738 181.234ZM131.684 158.91C131.684 156.918 131.156 155.324 130.102 154.129C129.047 152.91 127.559 152.301 125.637 152.301C123.738 152.301 122.262 152.887 121.207 154.059C120.152 155.23 119.625 156.848 119.625 158.91C119.625 160.949 120.152 162.59 121.207 163.832C122.262 165.074 123.75 165.695 125.672 165.695C127.594 165.695 129.07 165.074 130.102 163.832C131.156 162.59 131.684 160.949 131.684 158.91ZM184.277 174.836C184.277 181.914 182.812 187.328 179.883 191.078C176.953 194.828 172.664 196.703 167.016 196.703C161.438 196.703 157.172 194.863 154.219 191.184C151.266 187.504 149.754 182.23 149.684 175.363V165.941C149.684 158.793 151.16 153.367 154.113 149.664C157.09 145.961 161.367 144.109 166.945 144.109C172.523 144.109 176.789 145.949 179.742 149.629C182.695 153.285 184.207 158.547 184.277 165.414V174.836ZM174.117 164.5C174.117 160.258 173.531 157.176 172.359 155.254C171.211 153.309 169.406 152.336 166.945 152.336C164.555 152.336 162.785 153.262 161.637 155.113C160.512 156.941 159.914 159.812 159.844 163.727V176.172C159.844 180.344 160.406 183.449 161.531 185.488C162.68 187.504 164.508 188.512 167.016 188.512C169.5 188.512 171.293 187.539 172.395 185.594C173.496 183.648 174.07 180.672 174.117 176.664V164.5ZM191.027 154.656C191.027 151.516 192.047 148.973 194.086 147.027C196.125 145.059 198.797 144.074 202.102 144.074C205.453 144.074 208.148 145.047 210.188 146.992C212.227 148.914 213.246 151.527 213.246 154.832V157.363C213.246 160.527 212.227 163.07 210.188 164.992C208.148 166.914 205.477 167.875 202.172 167.875C198.844 167.875 196.148 166.914 194.086 164.992C192.047 163.047 191.027 160.434 191.027 157.152V154.656ZM197.777 157.363C197.777 158.77 198.176 159.906 198.973 160.773C199.793 161.617 200.859 162.039 202.172 162.039C203.484 162.039 204.527 161.605 205.301 160.738C206.074 159.871 206.461 158.711 206.461 157.258V154.656C206.461 153.25 206.074 152.113 205.301 151.246C204.527 150.379 203.461 149.945 202.102 149.945C200.812 149.945 199.77 150.379 198.973 151.246C198.176 152.09 197.777 153.273 197.777 154.797V157.363ZM215.496 183.449C215.496 180.285 216.527 177.742 218.59 175.82C220.652 173.875 223.324 172.902 226.605 172.902C229.934 172.902 232.617 173.863 234.656 175.785C236.719 177.684 237.75 180.309 237.75 183.66V186.191C237.75 189.332 236.742 191.875 234.727 193.82C232.711 195.742 230.027 196.703 226.676 196.703C223.301 196.703 220.594 195.73 218.555 193.785C216.516 191.84 215.496 189.262 215.496 186.051V183.449ZM222.246 186.191C222.246 187.48 222.668 188.582 223.512 189.496C224.355 190.41 225.41 190.867 226.676 190.867C229.535 190.867 230.965 189.285 230.965 186.121V183.449C230.965 182.043 230.566 180.918 229.77 180.074C228.973 179.207 227.918 178.773 226.605 178.773C225.293 178.773 224.238 179.207 223.441 180.074C222.645 180.918 222.246 182.078 222.246 183.555V186.191ZM204.176 192.168L199.219 189.496L224.215 149.488L229.172 152.16L204.176 192.168Z" fill="white"/>
</svg>
